<svg width="368" height="535" viewBox="0 0 368 535" fill="none" xmlns="http://www.w3.org/2000/svg">
<g filter="url(#filter0_d)">
<path d="M4 8L364 97.0272V535H4V8Z" fill="white"/>
</g>
<path d="M79.2959 378H77.6084V365.203H79.2959V378ZM83.6641 368.49L83.708 369.545C84.4053 368.725 85.3457 368.314 86.5293 368.314C87.8594 368.314 88.7646 368.824 89.2451 369.844C89.5615 369.387 89.9717 369.018 90.4756 368.736C90.9854 368.455 91.5859 368.314 92.2773 368.314C94.3633 368.314 95.4238 369.419 95.459 371.628V378H93.833V371.725C93.833 371.045 93.6777 370.538 93.3672 370.204C93.0566 369.864 92.5352 369.694 91.8027 369.694C91.1992 369.694 90.6982 369.876 90.2998 370.239C89.9014 370.597 89.6699 371.08 89.6055 371.689V378H87.9707V371.769C87.9707 370.386 87.2939 369.694 85.9404 369.694C84.874 369.694 84.1445 370.148 83.752 371.057V378H82.126V368.49H83.6641ZM105.953 373.351C105.953 374.798 105.622 375.964 104.96 376.849C104.298 377.733 103.401 378.176 102.271 378.176C101.116 378.176 100.208 377.81 99.5459 377.077V381.656H97.9199V368.49H99.4053L99.4844 369.545C100.146 368.725 101.066 368.314 102.244 368.314C103.387 368.314 104.289 368.745 104.951 369.606C105.619 370.468 105.953 371.666 105.953 373.201V373.351ZM104.327 373.166C104.327 372.094 104.099 371.247 103.642 370.626C103.185 370.005 102.558 369.694 101.761 369.694C100.776 369.694 100.038 370.131 99.5459 371.004V375.548C100.032 376.415 100.776 376.849 101.778 376.849C102.558 376.849 103.176 376.541 103.633 375.926C104.096 375.305 104.327 374.385 104.327 373.166ZM107.597 373.157C107.597 372.226 107.778 371.388 108.142 370.644C108.511 369.899 109.021 369.325 109.671 368.921C110.327 368.517 111.074 368.314 111.912 368.314C113.207 368.314 114.253 368.763 115.05 369.659C115.853 370.556 116.254 371.748 116.254 373.236V373.351C116.254 374.276 116.075 375.108 115.718 375.847C115.366 376.579 114.859 377.15 114.197 377.561C113.541 377.971 112.785 378.176 111.93 378.176C110.641 378.176 109.595 377.728 108.792 376.831C107.995 375.935 107.597 374.748 107.597 373.271V373.157ZM109.231 373.351C109.231 374.405 109.475 375.252 109.961 375.891C110.453 376.529 111.109 376.849 111.93 376.849C112.756 376.849 113.412 376.526 113.898 375.882C114.385 375.231 114.628 374.323 114.628 373.157C114.628 372.114 114.379 371.271 113.881 370.626C113.389 369.976 112.732 369.65 111.912 369.65C111.109 369.65 110.462 369.97 109.97 370.608C109.478 371.247 109.231 372.161 109.231 373.351ZM123.83 375.478C123.83 375.038 123.663 374.698 123.329 374.458C123.001 374.212 122.424 374.001 121.598 373.825C120.777 373.649 120.124 373.438 119.638 373.192C119.157 372.946 118.8 372.653 118.565 372.313C118.337 371.974 118.223 371.569 118.223 371.101C118.223 370.321 118.551 369.662 119.207 369.123C119.869 368.584 120.713 368.314 121.738 368.314C122.816 368.314 123.689 368.593 124.357 369.149C125.031 369.706 125.368 370.418 125.368 371.285H123.733C123.733 370.84 123.543 370.456 123.162 370.134C122.787 369.812 122.312 369.65 121.738 369.65C121.146 369.65 120.684 369.779 120.35 370.037C120.016 370.295 119.849 370.632 119.849 371.048C119.849 371.44 120.004 371.736 120.314 371.936C120.625 372.135 121.185 372.325 121.993 372.507C122.808 372.688 123.467 372.905 123.971 373.157C124.475 373.409 124.847 373.714 125.087 374.071C125.333 374.423 125.456 374.854 125.456 375.363C125.456 376.213 125.116 376.896 124.437 377.411C123.757 377.921 122.875 378.176 121.791 378.176C121.029 378.176 120.355 378.041 119.77 377.771C119.184 377.502 118.724 377.127 118.39 376.646C118.062 376.16 117.897 375.636 117.897 375.073H119.523C119.553 375.618 119.77 376.052 120.174 376.374C120.584 376.69 121.123 376.849 121.791 376.849C122.406 376.849 122.898 376.726 123.268 376.479C123.643 376.228 123.83 375.894 123.83 375.478ZM129.78 366.188V368.49H131.556V369.747H129.78V375.645C129.78 376.025 129.859 376.312 130.018 376.506C130.176 376.693 130.445 376.787 130.826 376.787C131.014 376.787 131.271 376.752 131.6 376.682V378C131.172 378.117 130.756 378.176 130.352 378.176C129.625 378.176 129.077 377.956 128.708 377.517C128.339 377.077 128.154 376.453 128.154 375.645V369.747H126.423V368.49H128.154V366.188H129.78ZM139.334 378C139.24 377.812 139.164 377.479 139.105 376.998C138.35 377.783 137.447 378.176 136.398 378.176C135.461 378.176 134.69 377.912 134.087 377.385C133.489 376.852 133.19 376.178 133.19 375.363C133.19 374.373 133.565 373.605 134.315 373.061C135.071 372.51 136.132 372.234 137.497 372.234H139.079V371.487C139.079 370.919 138.909 370.468 138.569 370.134C138.229 369.794 137.729 369.624 137.066 369.624C136.486 369.624 136 369.771 135.607 370.063C135.215 370.356 135.019 370.711 135.019 371.127H133.384C133.384 370.652 133.551 370.195 133.885 369.756C134.225 369.311 134.682 368.959 135.256 368.701C135.836 368.443 136.472 368.314 137.163 368.314C138.259 368.314 139.117 368.59 139.738 369.141C140.359 369.686 140.682 370.438 140.705 371.399V375.776C140.705 376.649 140.816 377.344 141.039 377.859V378H139.334ZM136.636 376.761C137.146 376.761 137.629 376.629 138.086 376.365C138.543 376.102 138.874 375.759 139.079 375.337V373.386H137.805C135.812 373.386 134.816 373.969 134.816 375.135C134.816 375.645 134.986 376.043 135.326 376.33C135.666 376.617 136.103 376.761 136.636 376.761ZM144.783 376.673H150.347V378H142.797V376.805L148.044 369.835H142.876V368.49H150.083V369.642L144.783 376.673ZM153.95 378H152.324V368.49H153.95V378ZM152.192 365.968C152.192 365.704 152.271 365.481 152.43 365.3C152.594 365.118 152.834 365.027 153.15 365.027C153.467 365.027 153.707 365.118 153.871 365.3C154.035 365.481 154.117 365.704 154.117 365.968C154.117 366.231 154.035 366.451 153.871 366.627C153.707 366.803 153.467 366.891 153.15 366.891C152.834 366.891 152.594 366.803 152.43 366.627C152.271 366.451 152.192 366.231 152.192 365.968ZM156.13 373.157C156.13 372.226 156.312 371.388 156.675 370.644C157.044 369.899 157.554 369.325 158.204 368.921C158.86 368.517 159.607 368.314 160.445 368.314C161.74 368.314 162.786 368.763 163.583 369.659C164.386 370.556 164.787 371.748 164.787 373.236V373.351C164.787 374.276 164.608 375.108 164.251 375.847C163.899 376.579 163.393 377.15 162.73 377.561C162.074 377.971 161.318 378.176 160.463 378.176C159.174 378.176 158.128 377.728 157.325 376.831C156.528 375.935 156.13 374.748 156.13 373.271V373.157ZM157.765 373.351C157.765 374.405 158.008 375.252 158.494 375.891C158.986 376.529 159.643 376.849 160.463 376.849C161.289 376.849 161.945 376.526 162.432 375.882C162.918 375.231 163.161 374.323 163.161 373.157C163.161 372.114 162.912 371.271 162.414 370.626C161.922 369.976 161.266 369.65 160.445 369.65C159.643 369.65 158.995 369.97 158.503 370.608C158.011 371.247 157.765 372.161 157.765 373.351ZM168.364 368.49L168.417 369.686C169.144 368.771 170.093 368.314 171.265 368.314C173.274 368.314 174.288 369.448 174.306 371.716V378H172.68V371.707C172.674 371.021 172.516 370.515 172.205 370.187C171.9 369.858 171.423 369.694 170.772 369.694C170.245 369.694 169.782 369.835 169.384 370.116C168.985 370.397 168.675 370.767 168.452 371.224V378H166.826V368.49H168.364ZM178.524 378H176.898V368.49H178.524V378ZM176.767 365.968C176.767 365.704 176.846 365.481 177.004 365.3C177.168 365.118 177.408 365.027 177.725 365.027C178.041 365.027 178.281 365.118 178.445 365.3C178.609 365.481 178.691 365.704 178.691 365.968C178.691 366.231 178.609 366.451 178.445 366.627C178.281 366.803 178.041 366.891 177.725 366.891C177.408 366.891 177.168 366.803 177.004 366.627C176.846 366.451 176.767 366.231 176.767 365.968Z" fill="black" fill-opacity="0.87"/>
<path fill-rule="evenodd" clip-rule="evenodd" d="M38.5022 371.272C38.5022 371.62 38.4722 371.947 38.4322 372.275L40.5422 373.963C40.7322 374.117 40.7822 374.393 40.6622 374.618L38.6622 378.159C38.5722 378.322 38.4022 378.414 38.2322 378.414C38.1722 378.414 38.1122 378.404 38.0522 378.384L35.5622 377.36C35.0422 377.76 34.4822 378.107 33.8722 378.363L33.4922 381.075C33.4622 381.321 33.2522 381.505 33.0022 381.505H29.0022C28.7522 381.505 28.5422 381.321 28.5122 381.075L28.1322 378.363C27.5222 378.107 26.9622 377.77 26.4422 377.36L23.9522 378.384C23.9022 378.404 23.8422 378.414 23.7822 378.414C23.6022 378.414 23.4322 378.322 23.3422 378.159L21.3422 374.618C21.2222 374.393 21.2722 374.117 21.4622 373.963L23.5722 372.275C23.5322 371.947 23.5022 371.61 23.5022 371.272C23.5022 370.934 23.5322 370.596 23.5722 370.269L21.4622 368.581C21.2722 368.427 21.2122 368.151 21.3422 367.926L23.3422 364.385C23.4322 364.221 23.6022 364.129 23.7722 364.129C23.8322 364.129 23.8922 364.139 23.9522 364.16L26.4422 365.183C26.9622 364.784 27.5222 364.436 28.1322 364.18L28.5122 361.469C28.5422 361.223 28.7522 361.039 29.0022 361.039H33.0022C33.2522 361.039 33.4622 361.223 33.4922 361.469L33.8722 364.18C34.4822 364.436 35.0422 364.774 35.5622 365.183L38.0522 364.16C38.1022 364.139 38.1622 364.129 38.2222 364.129C38.4022 364.129 38.5722 364.221 38.6622 364.385L40.6622 367.926C40.7822 368.151 40.7322 368.427 40.5422 368.581L38.4322 370.269C38.4722 370.596 38.5022 370.924 38.5022 371.272ZM36.5022 371.272C36.5022 371.057 36.4922 370.842 36.4522 370.525L36.3122 369.369L37.2022 368.652L38.2722 367.782L37.5722 366.544L36.3022 367.066L35.2422 367.506L34.3322 366.79C33.9322 366.483 33.5322 366.247 33.1022 366.063L32.0422 365.623L31.8822 364.467L31.6922 363.085H30.3022L30.1022 364.467L29.9422 365.623L28.8822 366.063C28.4722 366.237 28.0622 366.483 27.6322 366.81L26.7322 367.506L25.6922 367.076L24.4222 366.554L23.7222 367.793L24.8022 368.652L25.6922 369.369L25.5522 370.525C25.5222 370.832 25.5022 371.067 25.5022 371.272C25.5022 371.477 25.5222 371.712 25.5522 372.029L25.6922 373.185L24.8022 373.902L23.7222 374.761L24.4222 375.999L25.6922 375.478L26.7522 375.038L27.6622 375.754C28.0622 376.061 28.4622 376.296 28.8922 376.48L29.9522 376.92L30.1122 378.077L30.3022 379.458H31.7022L31.9022 378.077L32.0622 376.92L33.1222 376.48C33.5322 376.306 33.9422 376.061 34.3722 375.733L35.2722 375.038L36.3122 375.467L37.5822 375.989L38.2822 374.751L37.2022 373.891L36.3122 373.175L36.4522 372.019C36.4822 371.712 36.5022 371.487 36.5022 371.272ZM31.0022 367.179C28.7922 367.179 27.0022 369.01 27.0022 371.272C27.0022 373.533 28.7922 375.365 31.0022 375.365C33.2122 375.365 35.0022 373.533 35.0022 371.272C35.0022 369.01 33.2122 367.179 31.0022 367.179ZM29.0022 371.272C29.0022 372.397 29.9022 373.318 31.0022 373.318C32.1022 373.318 33.0022 372.397 33.0022 371.272C33.0022 370.146 32.1022 369.225 31.0022 369.225C29.9022 369.225 29.0022 370.146 29.0022 371.272Z" fill="black" fill-opacity="0.54"/>
<path d="M86.9336 321.321C86.5 321.942 85.8936 322.408 85.1143 322.719C84.3408 323.023 83.4385 323.176 82.4072 323.176C81.3643 323.176 80.4385 322.933 79.6299 322.446C78.8213 321.954 78.1943 321.257 77.749 320.354C77.3096 319.452 77.084 318.406 77.0723 317.217V316.101C77.0723 314.173 77.5205 312.679 78.417 311.618C79.3193 310.558 80.585 310.027 82.2139 310.027C83.5498 310.027 84.625 310.37 85.4395 311.056C86.2539 311.735 86.752 312.702 86.9336 313.956H85.2461C84.9297 312.263 83.9219 311.416 82.2227 311.416C81.0918 311.416 80.2334 311.814 79.6475 312.611C79.0674 313.402 78.7744 314.551 78.7686 316.057V317.103C78.7686 318.538 79.0967 319.681 79.7529 320.53C80.4092 321.374 81.2969 321.796 82.416 321.796C83.0488 321.796 83.6025 321.726 84.0771 321.585C84.5518 321.444 84.9443 321.207 85.2549 320.873V317.999H82.293V316.628H86.9336V321.321ZM95.3711 322.06C94.7383 322.804 93.8096 323.176 92.585 323.176C91.5713 323.176 90.7979 322.883 90.2646 322.297C89.7373 321.705 89.4707 320.832 89.4648 319.678V313.49H91.0908V319.634C91.0908 321.075 91.6768 321.796 92.8486 321.796C94.0908 321.796 94.917 321.333 95.3271 320.407V313.49H96.9531V323H95.4062L95.3711 322.06ZM101.198 323H99.5723V313.49H101.198V323ZM99.4404 310.968C99.4404 310.704 99.5195 310.481 99.6777 310.3C99.8418 310.118 100.082 310.027 100.398 310.027C100.715 310.027 100.955 310.118 101.119 310.3C101.283 310.481 101.365 310.704 101.365 310.968C101.365 311.231 101.283 311.451 101.119 311.627C100.955 311.803 100.715 311.891 100.398 311.891C100.082 311.891 99.8418 311.803 99.6777 311.627C99.5195 311.451 99.4404 311.231 99.4404 310.968ZM103.413 318.166C103.413 316.707 103.759 315.535 104.45 314.65C105.142 313.76 106.047 313.314 107.166 313.314C108.279 313.314 109.161 313.695 109.812 314.457V309.5H111.438V323H109.943L109.864 321.98C109.214 322.777 108.309 323.176 107.148 323.176C106.047 323.176 105.147 322.725 104.45 321.822C103.759 320.92 103.413 319.742 103.413 318.289V318.166ZM105.039 318.351C105.039 319.429 105.262 320.272 105.707 320.882C106.152 321.491 106.768 321.796 107.553 321.796C108.584 321.796 109.337 321.333 109.812 320.407V316.039C109.325 315.143 108.578 314.694 107.57 314.694C106.773 314.694 106.152 315.002 105.707 315.617C105.262 316.232 105.039 317.144 105.039 318.351ZM119.84 323C119.746 322.812 119.67 322.479 119.611 321.998C118.855 322.783 117.953 323.176 116.904 323.176C115.967 323.176 115.196 322.912 114.593 322.385C113.995 321.852 113.696 321.178 113.696 320.363C113.696 319.373 114.071 318.605 114.821 318.061C115.577 317.51 116.638 317.234 118.003 317.234H119.585V316.487C119.585 315.919 119.415 315.468 119.075 315.134C118.735 314.794 118.234 314.624 117.572 314.624C116.992 314.624 116.506 314.771 116.113 315.063C115.721 315.356 115.524 315.711 115.524 316.127H113.89C113.89 315.652 114.057 315.195 114.391 314.756C114.73 314.311 115.188 313.959 115.762 313.701C116.342 313.443 116.978 313.314 117.669 313.314C118.765 313.314 119.623 313.59 120.244 314.141C120.865 314.686 121.188 315.438 121.211 316.399V320.776C121.211 321.649 121.322 322.344 121.545 322.859V323H119.84ZM117.142 321.761C117.651 321.761 118.135 321.629 118.592 321.365C119.049 321.102 119.38 320.759 119.585 320.337V318.386H118.311C116.318 318.386 115.322 318.969 115.322 320.135C115.322 320.645 115.492 321.043 115.832 321.33C116.172 321.617 116.608 321.761 117.142 321.761Z" fill="black" fill-opacity="0.87"/>
<line x1="28" y1="343.143" x2="339.001" y2="343.143" stroke="black" stroke-opacity="0.12"/>
<path fill-rule="evenodd" clip-rule="evenodd" d="M23 318C23 312.48 27.48 308 33 308C38.52 308 43 312.48 43 318C43 323.52 38.52 328 33 328C27.48 328 23 323.52 23 318ZM34 322V324H32V322H34ZM33 326C28.59 326 25 322.41 25 318C25 313.59 28.59 310 33 310C37.41 310 41 313.59 41 318C41 322.41 37.41 326 33 326ZM29 316C29 313.79 30.79 312 33 312C35.21 312 37 313.79 37 316C37 317.283 36.21 317.973 35.4408 318.646C34.711 319.283 34 319.905 34 321H32C32 319.179 32.9421 318.457 33.7704 317.822C34.4202 317.324 35 316.879 35 316C35 314.9 34.1 314 33 314C31.9 314 31 314.9 31 316H29Z" fill="black" fill-opacity="0.54"/>
<path d="M77.4854 269V256.203H81.0977C82.2109 256.203 83.1953 256.449 84.0508 256.941C84.9062 257.434 85.5654 258.134 86.0283 259.042C86.4971 259.95 86.7344 260.993 86.7402 262.171V262.988C86.7402 264.195 86.5059 265.253 86.0371 266.161C85.5742 267.069 84.9092 267.767 84.042 268.253C83.1807 268.739 82.1758 268.988 81.0273 269H77.4854ZM79.1729 257.592V267.62H80.9482C82.249 267.62 83.2598 267.216 83.9805 266.407C84.707 265.599 85.0703 264.447 85.0703 262.953V262.206C85.0703 260.753 84.7275 259.625 84.042 258.822C83.3623 258.014 82.3955 257.604 81.1416 257.592H79.1729ZM90.8096 269H89.1836V259.49H90.8096V269ZM89.0518 256.968C89.0518 256.704 89.1309 256.481 89.2891 256.3C89.4531 256.118 89.6934 256.027 90.0098 256.027C90.3262 256.027 90.5664 256.118 90.7305 256.3C90.8945 256.481 90.9766 256.704 90.9766 256.968C90.9766 257.231 90.8945 257.451 90.7305 257.627C90.5664 257.803 90.3262 257.891 90.0098 257.891C89.6934 257.891 89.4531 257.803 89.2891 257.627C89.1309 257.451 89.0518 257.231 89.0518 256.968ZM96.5576 266.794L98.9131 259.49H100.574L97.1641 269H95.9248L92.4795 259.49H94.1406L96.5576 266.794ZM105.962 269.176C104.673 269.176 103.624 268.754 102.815 267.91C102.007 267.061 101.603 265.927 101.603 264.509V264.21C101.603 263.267 101.781 262.426 102.139 261.688C102.502 260.943 103.006 260.363 103.65 259.947C104.301 259.525 105.004 259.314 105.76 259.314C106.996 259.314 107.957 259.722 108.643 260.536C109.328 261.351 109.671 262.517 109.671 264.034V264.711H103.229C103.252 265.648 103.524 266.407 104.046 266.987C104.573 267.562 105.241 267.849 106.05 267.849C106.624 267.849 107.11 267.731 107.509 267.497C107.907 267.263 108.256 266.952 108.555 266.565L109.548 267.339C108.751 268.563 107.556 269.176 105.962 269.176ZM105.76 260.65C105.104 260.65 104.553 260.891 104.107 261.371C103.662 261.846 103.387 262.514 103.281 263.375H108.045V263.252C107.998 262.426 107.775 261.787 107.377 261.336C106.979 260.879 106.439 260.65 105.76 260.65ZM113.099 259.49L113.151 260.686C113.878 259.771 114.827 259.314 115.999 259.314C118.009 259.314 119.022 260.448 119.04 262.716V269H117.414V262.707C117.408 262.021 117.25 261.515 116.939 261.187C116.635 260.858 116.157 260.694 115.507 260.694C114.979 260.694 114.517 260.835 114.118 261.116C113.72 261.397 113.409 261.767 113.187 262.224V269H111.561V259.49H113.099ZM123.698 257.188V259.49H125.474V260.747H123.698V266.645C123.698 267.025 123.777 267.312 123.936 267.506C124.094 267.693 124.363 267.787 124.744 267.787C124.932 267.787 125.189 267.752 125.518 267.682V269C125.09 269.117 124.674 269.176 124.27 269.176C123.543 269.176 122.995 268.956 122.626 268.517C122.257 268.077 122.072 267.453 122.072 266.645V260.747H120.341V259.49H122.072V257.188H123.698ZM133.252 269C133.158 268.812 133.082 268.479 133.023 267.998C132.268 268.783 131.365 269.176 130.316 269.176C129.379 269.176 128.608 268.912 128.005 268.385C127.407 267.852 127.108 267.178 127.108 266.363C127.108 265.373 127.483 264.605 128.233 264.061C128.989 263.51 130.05 263.234 131.415 263.234H132.997V262.487C132.997 261.919 132.827 261.468 132.487 261.134C132.147 260.794 131.646 260.624 130.984 260.624C130.404 260.624 129.918 260.771 129.525 261.063C129.133 261.356 128.937 261.711 128.937 262.127H127.302C127.302 261.652 127.469 261.195 127.803 260.756C128.143 260.311 128.6 259.959 129.174 259.701C129.754 259.443 130.39 259.314 131.081 259.314C132.177 259.314 133.035 259.59 133.656 260.141C134.277 260.686 134.6 261.438 134.623 262.399V266.776C134.623 267.649 134.734 268.344 134.957 268.859V269H133.252ZM130.554 267.761C131.063 267.761 131.547 267.629 132.004 267.365C132.461 267.102 132.792 266.759 132.997 266.337V264.386H131.723C129.73 264.386 128.734 264.969 128.734 266.135C128.734 266.645 128.904 267.043 129.244 267.33C129.584 267.617 130.021 267.761 130.554 267.761ZM143.166 259.49L143.21 260.545C143.907 259.725 144.848 259.314 146.031 259.314C147.361 259.314 148.267 259.824 148.747 260.844C149.063 260.387 149.474 260.018 149.978 259.736C150.487 259.455 151.088 259.314 151.779 259.314C153.865 259.314 154.926 260.419 154.961 262.628V269H153.335V262.725C153.335 262.045 153.18 261.538 152.869 261.204C152.559 260.864 152.037 260.694 151.305 260.694C150.701 260.694 150.2 260.876 149.802 261.239C149.403 261.597 149.172 262.08 149.107 262.689V269H147.473V262.769C147.473 261.386 146.796 260.694 145.442 260.694C144.376 260.694 143.646 261.148 143.254 262.057V269H141.628V259.49H143.166ZM156.991 264.157C156.991 263.226 157.173 262.388 157.536 261.644C157.905 260.899 158.415 260.325 159.065 259.921C159.722 259.517 160.469 259.314 161.307 259.314C162.602 259.314 163.647 259.763 164.444 260.659C165.247 261.556 165.648 262.748 165.648 264.236V264.351C165.648 265.276 165.47 266.108 165.112 266.847C164.761 267.579 164.254 268.15 163.592 268.561C162.936 268.971 162.18 269.176 161.324 269.176C160.035 269.176 158.989 268.728 158.187 267.831C157.39 266.935 156.991 265.748 156.991 264.271V264.157ZM158.626 264.351C158.626 265.405 158.869 266.252 159.355 266.891C159.848 267.529 160.504 267.849 161.324 267.849C162.15 267.849 162.807 267.526 163.293 266.882C163.779 266.231 164.022 265.323 164.022 264.157C164.022 263.114 163.773 262.271 163.275 261.626C162.783 260.976 162.127 260.65 161.307 260.65C160.504 260.65 159.856 260.97 159.364 261.608C158.872 262.247 158.626 263.161 158.626 264.351ZM167.292 264.166C167.292 262.707 167.638 261.535 168.329 260.65C169.021 259.76 169.926 259.314 171.045 259.314C172.158 259.314 173.04 259.695 173.69 260.457V255.5H175.316V269H173.822L173.743 267.98C173.093 268.777 172.188 269.176 171.027 269.176C169.926 269.176 169.026 268.725 168.329 267.822C167.638 266.92 167.292 265.742 167.292 264.289V264.166ZM168.918 264.351C168.918 265.429 169.141 266.272 169.586 266.882C170.031 267.491 170.646 267.796 171.432 267.796C172.463 267.796 173.216 267.333 173.69 266.407V262.039C173.204 261.143 172.457 260.694 171.449 260.694C170.652 260.694 170.031 261.002 169.586 261.617C169.141 262.232 168.918 263.144 168.918 264.351ZM181.794 269.176C180.505 269.176 179.456 268.754 178.647 267.91C177.839 267.061 177.435 265.927 177.435 264.509V264.21C177.435 263.267 177.613 262.426 177.971 261.688C178.334 260.943 178.838 260.363 179.482 259.947C180.133 259.525 180.836 259.314 181.592 259.314C182.828 259.314 183.789 259.722 184.475 260.536C185.16 261.351 185.503 262.517 185.503 264.034V264.711H179.061C179.084 265.648 179.356 266.407 179.878 266.987C180.405 267.562 181.073 267.849 181.882 267.849C182.456 267.849 182.942 267.731 183.341 267.497C183.739 267.263 184.088 266.952 184.387 266.565L185.38 267.339C184.583 268.563 183.388 269.176 181.794 269.176ZM181.592 260.65C180.936 260.65 180.385 260.891 179.939 261.371C179.494 261.846 179.219 262.514 179.113 263.375H183.877V263.252C183.83 262.426 183.607 261.787 183.209 261.336C182.811 260.879 182.271 260.65 181.592 260.65ZM191.989 260.949C191.743 260.908 191.477 260.888 191.189 260.888C190.123 260.888 189.399 261.342 189.019 262.25V269H187.393V259.49H188.975L189.001 260.589C189.534 259.739 190.29 259.314 191.269 259.314C191.585 259.314 191.825 259.355 191.989 259.438V260.949ZM199.012 269C198.918 268.812 198.842 268.479 198.783 267.998C198.027 268.783 197.125 269.176 196.076 269.176C195.139 269.176 194.368 268.912 193.765 268.385C193.167 267.852 192.868 267.178 192.868 266.363C192.868 265.373 193.243 264.605 193.993 264.061C194.749 263.51 195.81 263.234 197.175 263.234H198.757V262.487C198.757 261.919 198.587 261.468 198.247 261.134C197.907 260.794 197.406 260.624 196.744 260.624C196.164 260.624 195.678 260.771 195.285 261.063C194.893 261.356 194.696 261.711 194.696 262.127H193.062C193.062 261.652 193.229 261.195 193.562 260.756C193.902 260.311 194.359 259.959 194.934 259.701C195.514 259.443 196.149 259.314 196.841 259.314C197.937 259.314 198.795 259.59 199.416 260.141C200.037 260.686 200.359 261.438 200.383 262.399V266.776C200.383 267.649 200.494 268.344 200.717 268.859V269H199.012ZM196.313 267.761C196.823 267.761 197.307 267.629 197.764 267.365C198.221 267.102 198.552 266.759 198.757 266.337V264.386H197.482C195.49 264.386 194.494 264.969 194.494 266.135C194.494 266.645 194.664 267.043 195.004 267.33C195.344 267.617 195.78 267.761 196.313 267.761ZM205.138 257.188V259.49H206.913V260.747H205.138V266.645C205.138 267.025 205.217 267.312 205.375 267.506C205.533 267.693 205.803 267.787 206.184 267.787C206.371 267.787 206.629 267.752 206.957 267.682V269C206.529 269.117 206.113 269.176 205.709 269.176C204.982 269.176 204.435 268.956 204.065 268.517C203.696 268.077 203.512 267.453 203.512 266.645V260.747H201.78V259.49H203.512V257.188H205.138ZM208.214 264.157C208.214 263.226 208.396 262.388 208.759 261.644C209.128 260.899 209.638 260.325 210.288 259.921C210.944 259.517 211.691 259.314 212.529 259.314C213.824 259.314 214.87 259.763 215.667 260.659C216.47 261.556 216.871 262.748 216.871 264.236V264.351C216.871 265.276 216.692 266.108 216.335 266.847C215.983 267.579 215.477 268.15 214.814 268.561C214.158 268.971 213.402 269.176 212.547 269.176C211.258 269.176 210.212 268.728 209.409 267.831C208.612 266.935 208.214 265.748 208.214 264.271V264.157ZM209.849 264.351C209.849 265.405 210.092 266.252 210.578 266.891C211.07 267.529 211.727 267.849 212.547 267.849C213.373 267.849 214.029 267.526 214.516 266.882C215.002 266.231 215.245 265.323 215.245 264.157C215.245 263.114 214.996 262.271 214.498 261.626C214.006 260.976 213.35 260.65 212.529 260.65C211.727 260.65 211.079 260.97 210.587 261.608C210.095 262.247 209.849 263.161 209.849 264.351ZM223.507 260.949C223.261 260.908 222.994 260.888 222.707 260.888C221.641 260.888 220.917 261.342 220.536 262.25V269H218.91V259.49H220.492L220.519 260.589C221.052 259.739 221.808 259.314 222.786 259.314C223.103 259.314 223.343 259.355 223.507 259.438V260.949ZM228.78 269.176C227.491 269.176 226.442 268.754 225.634 267.91C224.825 267.061 224.421 265.927 224.421 264.509V264.21C224.421 263.267 224.6 262.426 224.957 261.688C225.32 260.943 225.824 260.363 226.469 259.947C227.119 259.525 227.822 259.314 228.578 259.314C229.814 259.314 230.775 259.722 231.461 260.536C232.146 261.351 232.489 262.517 232.489 264.034V264.711H226.047C226.07 265.648 226.343 266.407 226.864 266.987C227.392 267.562 228.06 267.849 228.868 267.849C229.442 267.849 229.929 267.731 230.327 267.497C230.726 267.263 231.074 266.952 231.373 266.565L232.366 267.339C231.569 268.563 230.374 269.176 228.78 269.176ZM228.578 260.65C227.922 260.65 227.371 260.891 226.926 261.371C226.48 261.846 226.205 262.514 226.1 263.375H230.863V263.252C230.816 262.426 230.594 261.787 230.195 261.336C229.797 260.879 229.258 260.65 228.578 260.65Z" fill="black" fill-opacity="0.87"/>
<line x1="28" y1="288.908" x2="339.001" y2="288.908" stroke="black" stroke-opacity="0.12"/>
<path fill-rule="evenodd" clip-rule="evenodd" d="M35.5 259.75C35.5 261.96 33.71 263.75 31.5 263.75C29.29 263.75 27.5 261.96 27.5 259.75C27.5 257.54 29.29 255.75 31.5 255.75C33.71 255.75 35.5 257.54 35.5 259.75ZM33.5 259.75C33.5 258.65 32.6 257.75 31.5 257.75C30.4 257.75 29.5 258.65 29.5 259.75C29.5 260.85 30.4 261.75 31.5 261.75C32.6 261.75 33.5 260.85 33.5 259.75ZM25.5 269.75C25.7 269.12 28.07 268.07 30.46 267.81L32.5 265.81C32.11 265.77 31.82 265.75 31.5 265.75C28.83 265.75 23.5 267.09 23.5 269.75V271.75H32.5L30.5 269.75H25.5ZM35.97 269.42L41.1 264.25L42.5 265.66L35.97 272.25L32.5 268.75L33.9 267.34L35.97 269.42Z" fill="black" fill-opacity="0.54"/>
<path fill-rule="evenodd" clip-rule="evenodd" d="M9 184.008C6.23858 184.008 4 186.246 4 189.008V230.173C4 232.934 6.23858 235.173 9 235.173H359C361.761 235.173 364 232.934 364 230.173V189.008C364 186.246 361.761 184.008 359 184.008H9Z" fill="white"/>
<path d="M79.1729 209.99V215H77.4854V202.203H82.2051C83.6055 202.203 84.7012 202.561 85.4922 203.275C86.2891 203.99 86.6875 204.937 86.6875 206.114C86.6875 207.356 86.2979 208.314 85.5186 208.988C84.7451 209.656 83.6348 209.99 82.1875 209.99H79.1729ZM79.1729 208.61H82.2051C83.1074 208.61 83.7988 208.399 84.2793 207.978C84.7598 207.55 85 206.935 85 206.132C85 205.37 84.7598 204.761 84.2793 204.304C83.7988 203.847 83.1396 203.609 82.3018 203.592H79.1729V208.61ZM94.457 214.06C93.8242 214.804 92.8955 215.176 91.6709 215.176C90.6572 215.176 89.8838 214.883 89.3506 214.297C88.8232 213.705 88.5566 212.832 88.5508 211.678V205.49H90.1768V211.634C90.1768 213.075 90.7627 213.796 91.9346 213.796C93.1768 213.796 94.0029 213.333 94.4131 212.407V205.49H96.0391V215H94.4922L94.457 214.06ZM100.056 205.49L100.108 206.686C100.835 205.771 101.784 205.314 102.956 205.314C104.966 205.314 105.979 206.448 105.997 208.716V215H104.371V208.707C104.365 208.021 104.207 207.515 103.896 207.187C103.592 206.858 103.114 206.694 102.464 206.694C101.937 206.694 101.474 206.835 101.075 207.116C100.677 207.397 100.366 207.767 100.144 208.224V215H98.5176V205.49H100.056ZM110.655 203.188V205.49H112.431V206.747H110.655V212.645C110.655 213.025 110.734 213.312 110.893 213.506C111.051 213.693 111.32 213.787 111.701 213.787C111.889 213.787 112.146 213.752 112.475 213.682V215C112.047 215.117 111.631 215.176 111.227 215.176C110.5 215.176 109.952 214.956 109.583 214.517C109.214 214.077 109.029 213.453 109.029 212.645V206.747H107.298V205.49H109.029V203.188H110.655ZM116.104 215H114.479V205.49H116.104V215ZM114.347 202.968C114.347 202.704 114.426 202.481 114.584 202.3C114.748 202.118 114.988 202.027 115.305 202.027C115.621 202.027 115.861 202.118 116.025 202.3C116.189 202.481 116.271 202.704 116.271 202.968C116.271 203.231 116.189 203.451 116.025 203.627C115.861 203.803 115.621 203.891 115.305 203.891C114.988 203.891 114.748 203.803 114.584 203.627C114.426 203.451 114.347 203.231 114.347 202.968ZM122.784 210.166C122.784 208.707 123.13 207.535 123.821 206.65C124.513 205.76 125.418 205.314 126.537 205.314C127.65 205.314 128.532 205.695 129.183 206.457V201.5H130.809V215H129.314L129.235 213.98C128.585 214.777 127.68 215.176 126.52 215.176C125.418 215.176 124.519 214.725 123.821 213.822C123.13 212.92 122.784 211.742 122.784 210.289V210.166ZM124.41 210.351C124.41 211.429 124.633 212.272 125.078 212.882C125.523 213.491 126.139 213.796 126.924 213.796C127.955 213.796 128.708 213.333 129.183 212.407V208.039C128.696 207.143 127.949 206.694 126.941 206.694C126.145 206.694 125.523 207.002 125.078 207.617C124.633 208.232 124.41 209.144 124.41 210.351ZM135.106 215H133.48V205.49H135.106V215ZM133.349 202.968C133.349 202.704 133.428 202.481 133.586 202.3C133.75 202.118 133.99 202.027 134.307 202.027C134.623 202.027 134.863 202.118 135.027 202.3C135.191 202.481 135.273 202.704 135.273 202.968C135.273 203.231 135.191 203.451 135.027 203.627C134.863 203.803 134.623 203.891 134.307 203.891C133.99 203.891 133.75 203.803 133.586 203.627C133.428 203.451 133.349 203.231 133.349 202.968ZM143.948 215H142.322V205.49H143.948V215ZM142.19 202.968C142.19 202.704 142.27 202.481 142.428 202.3C142.592 202.118 142.832 202.027 143.148 202.027C143.465 202.027 143.705 202.118 143.869 202.3C144.033 202.481 144.115 202.704 144.115 202.968C144.115 203.231 144.033 203.451 143.869 203.627C143.705 203.803 143.465 203.891 143.148 203.891C142.832 203.891 142.592 203.803 142.428 203.627C142.27 203.451 142.19 203.231 142.19 202.968ZM148.097 205.49L148.149 206.686C148.876 205.771 149.825 205.314 150.997 205.314C153.007 205.314 154.021 206.448 154.038 208.716V215H152.412V208.707C152.406 208.021 152.248 207.515 151.938 207.187C151.633 206.858 151.155 206.694 150.505 206.694C149.978 206.694 149.515 206.835 149.116 207.116C148.718 207.397 148.407 207.767 148.185 208.224V215H146.559V205.49H148.097ZM158.696 203.188V205.49H160.472V206.747H158.696V212.645C158.696 213.025 158.775 213.312 158.934 213.506C159.092 213.693 159.361 213.787 159.742 213.787C159.93 213.787 160.188 213.752 160.516 213.682V215C160.088 215.117 159.672 215.176 159.268 215.176C158.541 215.176 157.993 214.956 157.624 214.517C157.255 214.077 157.07 213.453 157.07 212.645V206.747H155.339V205.49H157.07V203.188H158.696ZM166.325 215.176C165.036 215.176 163.987 214.754 163.179 213.91C162.37 213.061 161.966 211.927 161.966 210.509V210.21C161.966 209.267 162.145 208.426 162.502 207.688C162.865 206.943 163.369 206.363 164.014 205.947C164.664 205.525 165.367 205.314 166.123 205.314C167.359 205.314 168.32 205.722 169.006 206.536C169.691 207.351 170.034 208.517 170.034 210.034V210.711H163.592C163.615 211.648 163.888 212.407 164.409 212.987C164.937 213.562 165.604 213.849 166.413 213.849C166.987 213.849 167.474 213.731 167.872 213.497C168.271 213.263 168.619 212.952 168.918 212.565L169.911 213.339C169.114 214.563 167.919 215.176 166.325 215.176ZM166.123 206.65C165.467 206.65 164.916 206.891 164.471 207.371C164.025 207.846 163.75 208.514 163.645 209.375H168.408V209.252C168.361 208.426 168.139 207.787 167.74 207.336C167.342 206.879 166.803 206.65 166.123 206.65ZM176.521 206.949C176.274 206.908 176.008 206.888 175.721 206.888C174.654 206.888 173.931 207.342 173.55 208.25V215H171.924V205.49H173.506L173.532 206.589C174.065 205.739 174.821 205.314 175.8 205.314C176.116 205.314 176.356 205.355 176.521 205.438V206.949ZM181.794 215.176C180.505 215.176 179.456 214.754 178.647 213.91C177.839 213.061 177.435 211.927 177.435 210.509V210.21C177.435 209.267 177.613 208.426 177.971 207.688C178.334 206.943 178.838 206.363 179.482 205.947C180.133 205.525 180.836 205.314 181.592 205.314C182.828 205.314 183.789 205.722 184.475 206.536C185.16 207.351 185.503 208.517 185.503 210.034V210.711H179.061C179.084 211.648 179.356 212.407 179.878 212.987C180.405 213.562 181.073 213.849 181.882 213.849C182.456 213.849 182.942 213.731 183.341 213.497C183.739 213.263 184.088 212.952 184.387 212.565L185.38 213.339C184.583 214.563 183.388 215.176 181.794 215.176ZM181.592 206.65C180.936 206.65 180.385 206.891 179.939 207.371C179.494 207.846 179.219 208.514 179.113 209.375H183.877V209.252C183.83 208.426 183.607 207.787 183.209 207.336C182.811 206.879 182.271 206.65 181.592 206.65ZM192.93 212.478C192.93 212.038 192.763 211.698 192.429 211.458C192.101 211.212 191.523 211.001 190.697 210.825C189.877 210.649 189.224 210.438 188.737 210.192C188.257 209.946 187.899 209.653 187.665 209.313C187.437 208.974 187.322 208.569 187.322 208.101C187.322 207.321 187.65 206.662 188.307 206.123C188.969 205.584 189.812 205.314 190.838 205.314C191.916 205.314 192.789 205.593 193.457 206.149C194.131 206.706 194.468 207.418 194.468 208.285H192.833C192.833 207.84 192.643 207.456 192.262 207.134C191.887 206.812 191.412 206.65 190.838 206.65C190.246 206.65 189.783 206.779 189.449 207.037C189.115 207.295 188.948 207.632 188.948 208.048C188.948 208.44 189.104 208.736 189.414 208.936C189.725 209.135 190.284 209.325 191.093 209.507C191.907 209.688 192.566 209.905 193.07 210.157C193.574 210.409 193.946 210.714 194.187 211.071C194.433 211.423 194.556 211.854 194.556 212.363C194.556 213.213 194.216 213.896 193.536 214.411C192.856 214.921 191.975 215.176 190.891 215.176C190.129 215.176 189.455 215.041 188.869 214.771C188.283 214.502 187.823 214.127 187.489 213.646C187.161 213.16 186.997 212.636 186.997 212.073H188.623C188.652 212.618 188.869 213.052 189.273 213.374C189.684 213.69 190.223 213.849 190.891 213.849C191.506 213.849 191.998 213.726 192.367 213.479C192.742 213.228 192.93 212.894 192.93 212.478ZM202.211 212.478C202.211 212.038 202.044 211.698 201.71 211.458C201.382 211.212 200.805 211.001 199.979 210.825C199.158 210.649 198.505 210.438 198.019 210.192C197.538 209.946 197.181 209.653 196.946 209.313C196.718 208.974 196.604 208.569 196.604 208.101C196.604 207.321 196.932 206.662 197.588 206.123C198.25 205.584 199.094 205.314 200.119 205.314C201.197 205.314 202.07 205.593 202.738 206.149C203.412 206.706 203.749 207.418 203.749 208.285H202.114C202.114 207.84 201.924 207.456 201.543 207.134C201.168 206.812 200.693 206.65 200.119 206.65C199.527 206.65 199.064 206.779 198.73 207.037C198.396 207.295 198.229 207.632 198.229 208.048C198.229 208.44 198.385 208.736 198.695 208.936C199.006 209.135 199.565 209.325 200.374 209.507C201.188 209.688 201.848 209.905 202.352 210.157C202.855 210.409 203.228 210.714 203.468 211.071C203.714 211.423 203.837 211.854 203.837 212.363C203.837 213.213 203.497 213.896 202.817 214.411C202.138 214.921 201.256 215.176 200.172 215.176C199.41 215.176 198.736 215.041 198.15 214.771C197.564 214.502 197.104 214.127 196.771 213.646C196.442 213.16 196.278 212.636 196.278 212.073H197.904C197.934 212.618 198.15 213.052 198.555 213.374C198.965 213.69 199.504 213.849 200.172 213.849C200.787 213.849 201.279 213.726 201.648 213.479C202.023 213.228 202.211 212.894 202.211 212.478ZM209.901 215.176C208.612 215.176 207.563 214.754 206.755 213.91C205.946 213.061 205.542 211.927 205.542 210.509V210.21C205.542 209.267 205.721 208.426 206.078 207.688C206.441 206.943 206.945 206.363 207.59 205.947C208.24 205.525 208.943 205.314 209.699 205.314C210.936 205.314 211.896 205.722 212.582 206.536C213.268 207.351 213.61 208.517 213.61 210.034V210.711H207.168C207.191 211.648 207.464 212.407 207.985 212.987C208.513 213.562 209.181 213.849 209.989 213.849C210.563 213.849 211.05 213.731 211.448 213.497C211.847 213.263 212.195 212.952 212.494 212.565L213.487 213.339C212.69 214.563 211.495 215.176 209.901 215.176ZM209.699 206.65C209.043 206.65 208.492 206.891 208.047 207.371C207.602 207.846 207.326 208.514 207.221 209.375H211.984V209.252C211.938 208.426 211.715 207.787 211.316 207.336C210.918 206.879 210.379 206.65 209.699 206.65Z" fill="black" fill-opacity="0.87"/>
<line x1="28" y1="234.673" x2="339.001" y2="234.673" stroke="black" stroke-opacity="0.12"/>
<path fill-rule="evenodd" clip-rule="evenodd" d="M33 200C29.13 200 26 203.13 26 207C26 212.25 33 220 33 220C33 220 40 212.25 40 207C40 203.13 36.87 200 33 200ZM28 207C28 204.24 30.24 202 33 202C35.76 202 38 204.24 38 207C38 209.88 35.12 214.19 33 216.88C30.92 214.21 28 209.85 28 207ZM30.5 207C30.5 205.619 31.6193 204.5 33 204.5C33.8932 204.5 34.7185 204.976 35.1651 205.75C35.6116 206.524 35.6116 207.476 35.1651 208.25C34.7185 209.024 33.8932 209.5 33 209.5C31.6193 209.5 30.5 208.381 30.5 207Z" fill="black" fill-opacity="0.54"/>
<defs>
<filter id="filter0_d" x="0" y="0" width="368" height="535" filterUnits="userSpaceOnUse" color-interpolation-filters="sRGB">
<feFlood flood-opacity="0" result="BackgroundImageFix"/>
<feColorMatrix in="SourceAlpha" type="matrix" values="0 0 0 0 0 0 0 0 0 0 0 0 0 0 0 0 0 0 127 0"/>
<feOffset dy="-4"/>
<feGaussianBlur stdDeviation="2"/>
<feColorMatrix type="matrix" values="0 0 0 0 0 0 0 0 0 0 0 0 0 0 0 0 0 0 0.25 0"/>
<feBlend mode="normal" in2="BackgroundImageFix" result="effect1_dropShadow"/>
<feBlend mode="normal" in="SourceGraphic" in2="effect1_dropShadow" result="shape"/>
</filter>
</defs>
</svg>
